<?xml version="1.0" encoding="utf-8"?>
<!-- Svg Vector Icons : http://www.onlinewebfonts.com/icon -->
<!DOCTYPE svg PUBLIC "-//W3C//DTD SVG 1.1//EN" "http://www.w3.org/Graphics/SVG/1.1/DTD/svg11.dtd">
<svg version="1.1" xmlns="http://www.w3.org/2000/svg" xmlns:xlink="http://www.w3.org/1999/xlink" x="0px" y="0px" viewBox="0 0 256 256" enable-background="new 0 0 256 256" xml:space="preserve">
<metadata> Svg Vector Icons : http://www.onlinewebfonts.com/icon </metadata>
<g><g><g><g><path fill="#000000" d="M102.9,158.4c-4.9,4.4-14.4,13.3-30.3,13.3C54,171.8,36,155.4,36,129.3c0-33.5,21.5-44.3,38-44.3c23.8,0,29,14.4,35.5,34.2l8.7,27.2c8.6,26.4,24.9,47.7,71.6,47.7c33.5,0,56.2-10.4,56.2-37.6c0-22.1-12.5-33.5-35.7-39l-17.3-3.8c-11.9-2.7-15.4-7.6-15.4-15.8c0-9.3,7.3-14.7,19.2-14.7c13,0,20,4.9,21.1,16.6l27-3.3C242.7,72,226,61.9,198.4,61.9c-24.3,0-48.1,9.3-48.1,39c0,18.5,8.9,30.2,31.4,35.7l18.4,4.4c13.8,3.3,18.4,9,18.4,16.9c0,10.1-9.7,14.2-28.1,14.2c-27.3,0-41-14.4-47.5-34.3l-8.9-27.2C122.5,75,109.1,61.9,73.2,61.9C41.1,61.9,10,87.3,10,130.3c0,41.4,29.9,63.8,61.3,63.8c22.7,0,34.2-8,39.9-12.1L102.9,158.4z"/></g></g><g></g><g></g><g></g><g></g><g></g><g></g><g></g><g></g><g></g><g></g><g></g><g></g><g></g><g></g><g></g></g></g>
</svg>