<?xml version="1.0" encoding="utf-8"?>
<!-- Svg Vector Icons : http://www.onlinewebfonts.com/icon -->
<!DOCTYPE svg PUBLIC "-//W3C//DTD SVG 1.1//EN" "http://www.w3.org/Graphics/SVG/1.1/DTD/svg11.dtd">
<svg version="1.1" xmlns="http://www.w3.org/2000/svg" xmlns:xlink="http://www.w3.org/1999/xlink" x="0px" y="0px" viewBox="0 0 256 256" enable-background="new 0 0 256 256" xml:space="preserve">
<metadata> Svg Vector Icons : http://www.onlinewebfonts.com/icon </metadata>
<g><g><g><g><path fill="#000000" d="M216.3,120.1c-3.2,0-6.2,0.7-9.1,1.6c-3.3-25.4-25.5-45.1-52.6-45.1c-6.6,0-12.9,1.2-18.8,3.4v99.5h80.5c16.4,0,29.7-13.3,29.7-29.7S232.7,120.1,216.3,120.1z"/><path fill="#000000" d="M124.9,81.3c-3.9,0-7,3.1-7,7v83.7c0,3.9,3.1,7,7,7c3.9,0,7-3.1,7-7V88.3C131.9,84.4,128.8,81.3,124.9,81.3z"/><path fill="#000000" d="M107,92.5c-3.9,0-7,3.1-7,7v72.4c0,3.9,3.1,7,7,7s7-3.1,7-7V99.5C113.9,95.7,110.8,92.5,107,92.5z"/><path fill="#000000" d="M88.9,87.9c-3.9,0-7,3.1-7,7v77.1c0,3.9,3.1,7,7,7c3.9,0,7-3.1,7-7V94.8C95.9,91,92.8,87.9,88.9,87.9z"/><path fill="#000000" d="M71,98.1c-3.9,0-7,3.1-7,7V172c0,3.9,3.1,7,7,7c3.9,0,7-3.1,7-7v-66.9C77.9,101.3,74.8,98.1,71,98.1z"/><path fill="#000000" d="M53,123.2c-3.9,0-7,3.1-7,7V172c0,3.9,3.1,7,7,7c3.9,0,7-3.1,7-7v-41.9C59.9,126.3,56.8,123.2,53,123.2z"/><path fill="#000000" d="M35,123.2c-3.9,0-7,3.1-7,7V172c0,3.9,3.1,7,7,7c3.9,0,7-3.1,7-7v-41.9C41.9,126.3,38.8,123.2,35,123.2z"/><path fill="#000000" d="M17,133.2c-3.9,0-7,3.1-7,7v31.8c0,3.9,3.1,7,7,7c3.9,0,7-3.1,7-7v-31.8C23.9,136.3,20.8,133.2,17,133.2z"/></g></g><g></g><g></g><g></g><g></g><g></g><g></g><g></g><g></g><g></g><g></g><g></g><g></g><g></g><g></g><g></g></g></g>
</svg>